<svg xmlns="http://www.w3.org/2000/svg" viewBox="0 0 128 128"><rect width="128" height="128" rx="28" fill="#07131f"/><circle cx="64" cy="64" r="43" fill="#ffffff"/><path d="M64 30 83 44 76 67H52L45 44Z" fill="#111827"/><path d="M31 56 45 44 52 67 38 80Z" fill="#111827"/><path d="M97 56 83 44 76 67 90 80Z" fill="#111827"/><path d="M48 96 38 80 52 67 64 76 76 67 90 80 80 96Z" fill="#111827"/><path d="M64 30V16M31 56 18 50M97 56l13-6M48 96l-8 12M80 96l8 12" stroke="#111827" stroke-width="6" stroke-linecap="round"/></svg>